<svg height="512" viewBox="0 0 64 64" width="512" xmlns="http://www.w3.org/2000/svg"><path d="m25 29h14v6h-14z" fill="#57a4ff"/><path d="m25 39h14v6h-14z" fill="#57a4ff"/><path d="m25 49h14v11h-14z" fill="#57a4ff"/><path d="m25 19h14v6h-14z" fill="#57a4ff"/><path d="m14 12h4v41h-4z" fill="#57a4ff"/><path d="m46 12h4v41h-4z" fill="#57a4ff"/><g fill="#004fac"><path d="m58 59h-3v-51a1 1 0 0 0 -1-1h-12a1 1 0 0 0 -1 1v6h-18v-6a1 1 0 0 0 -1-1h-12a1 1 0 0 0 -1 1v51h-7a1 1 0 0 0 0 2h56a1 1 0 0 0 0-2zm-47-50h10v50h-10zm12 7h18v43h-1v-10a1 1 0 0 0 -1-1h-14a1 1 0 0 0 -1 1v10h-1zm8 35h-5v-1h5zm2-1h5v1h-5zm-7 9v-6h5v6zm7 0v-6h5v6zm10 0v-50h10v50z"/><path d="m62 59h-1a1 1 0 0 0 0 2h1a1 1 0 0 0 0-2z"/><path d="m25 36h14a1 1 0 0 0 1-1v-6a1 1 0 0 0 -1-1h-14a1 1 0 0 0 -1 1v6a1 1 0 0 0 1 1zm13-6v4h-2v-4zm-4 0v4h-4v-4zm-8 0h2v4h-2z"/><path d="m25 46h14a1 1 0 0 0 1-1v-6a1 1 0 0 0 -1-1h-14a1 1 0 0 0 -1 1v6a1 1 0 0 0 1 1zm13-6v4h-2v-4zm-4 0v4h-4v-4zm-8 0h2v4h-2z"/><path d="m25 26h14a1 1 0 0 0 1-1v-6a1 1 0 0 0 -1-1h-14a1 1 0 0 0 -1 1v6a1 1 0 0 0 1 1zm13-6v4h-2v-4zm-4 0v4h-4v-4zm-8 0h2v4h-2z"/><path d="m18 11h-4a1 1 0 0 0 -1 1v41a1 1 0 0 0 1 1h4a1 1 0 0 0 1-1v-41a1 1 0 0 0 -1-1zm-1 10h-2v-3h2zm0 5h-2v-3h2zm0 5h-2v-3h2zm0 5h-2v-3h2zm0 5h-2v-3h2zm-2 2h2v3h-2zm0-30h2v3h-2zm2 39h-2v-4h2z"/><path d="m50 11h-4a1 1 0 0 0 -1 1v41a1 1 0 0 0 1 1h4a1 1 0 0 0 1-1v-41a1 1 0 0 0 -1-1zm-1 10h-2v-3h2zm0 5h-2v-3h2zm0 5h-2v-3h2zm0 5h-2v-3h2zm0 5h-2v-3h2zm-2 2h2v3h-2zm0-30h2v3h-2zm2 39h-2v-4h2z"/></g></svg>